<svg width="70" height="70" viewBox="0 0 70 70" fill="none" xmlns="http://www.w3.org/2000/svg">
<path d="M58.0459 50.5421V48.3101H56.3007H56.1553V47.5668V46.4505V46.4036L53.2822 41.242H56.3007V38.2394L48.7076 29.3377H21.9192L15.011 39.7799C13.8291 40.7006 13.0572 42.089 13.0572 43.6606C13.0572 46.4137 15.3785 48.6503 18.2418 48.6785C16.3154 49.4194 14.9479 51.2226 14.9479 53.3323C14.9479 54.8645 15.6818 56.2224 16.8135 57.1444C14.1449 57.3714 12.0391 59.503 12.0391 62.1208C12.0391 64.8911 14.3877 67.1429 17.2749 67.1429H18.4384H50.3858H52.7129H55.137V64.9109H52.7129V59.3306H55.137V58.354H56.3007H58.0459V56.1221H56.3007V50.5421H58.0459ZM15.3841 43.6606C15.3841 42.6212 15.9873 41.7219 16.8702 41.2423H51.5495V46.4504H18.293C16.6892 46.4507 15.3841 45.1996 15.3841 43.6606ZM50.3858 64.911H18.4385H17.275C15.6711 64.911 14.3662 63.6602 14.3662 62.1209C14.3662 60.5829 15.6711 59.3308 17.275 59.3308H18.4385H50.386L50.3858 64.911ZM53.9736 56.1223H21.3471H20.1834C18.5797 56.1223 17.2748 54.8711 17.2748 53.3322C17.2748 51.7941 18.5797 50.5418 20.1834 50.5418H21.3471H53.9737V56.1223H53.9736Z" fill="#161546"/>
<path d="M49.9416 14.3809C48.8469 14.3809 46.8506 14.1901 46.8506 13.8586C46.8506 6.20548 40.3821 0 32.403 0C25.7279 0 20.1269 4.34844 18.4687 10.248C13.2794 11.8892 9.52942 16.5703 9.52942 22.097C9.52942 25.7995 13.572 30.3606 16.057 32.8146L20.0005 26.8542H50.3621L55.5957 32.9901C58.5238 31.1962 60.4708 28.0597 60.4708 24.4806C60.4706 18.9026 55.7562 14.3809 49.9416 14.3809Z" fill="#161546"/>
</svg>
